<?xml version="1.0" standalone="no"?>
<!DOCTYPE svg PUBLIC "-//W3C//DTD SVG 20010904//EN"
 "http://www.w3.org/TR/2001/REC-SVG-20010904/DTD/svg10.dtd">
<svg version="1.0" xmlns="http://www.w3.org/2000/svg"
 width="341.000000pt" height="133.000000pt" viewBox="0 0 341.000000 133.000000"
 preserveAspectRatio="xMidYMid meet">

<g transform="translate(0.000000,133.000000) scale(0.100000,-0.100000)"
fill="#000000" stroke="none">
<path d="M1360 1118 c0 -3 7 -19 15 -34 32 -62 7 -143 -60 -195 -128 -98 -166
-144 -180 -220 -11 -61 32 -169 67 -169 7 0 2 10 -9 23 -49 54 -57 114 -20
168 53 79 134 76 192 -6 13 -19 14 -18 15 18 0 42 -27 77 -61 77 -29 0 -21 12
31 52 79 60 106 131 76 201 -12 29 -66 98 -66 85z"/>
<path d="M911 1096 c-16 -19 -11 -46 12 -60 25 -16 52 4 52 40 0 24 -5 30 -26
32 -14 2 -31 -4 -38 -12z"/>
<path d="M735 1090 c-41 -9 -66 -23 -95 -55 l-25 -28 32 17 c42 21 107 20 145
-1 32 -20 143 -152 134 -161 -3 -3 -15 7 -27 22 -12 15 -23 25 -26 23 -2 -3 7
-17 21 -32 34 -37 50 -94 36 -132 -28 -76 -61 -100 -127 -90 -39 7 -83 41 -83
65 0 9 -3 12 -7 9 -11 -11 -5 -68 9 -84 7 -9 25 -21 40 -27 l27 -12 -53 -40
c-79 -62 -104 -132 -72 -207 7 -18 23 -41 35 -52 l22 -19 -10 28 c-16 40 -13
108 4 133 9 12 55 56 104 97 103 87 131 134 131 215 0 29 -5 61 -11 73 -15 29
-3 35 24 11 56 -52 156 -70 215 -39 32 17 88 73 80 81 -3 3 -13 -6 -22 -19
-42 -65 -157 -74 -208 -17 -47 52 -34 136 25 164 28 14 28 15 8 22 -41 13
-101 -21 -101 -57 0 -28 -12 -21 -42 22 -47 68 -122 105 -183 90z"/>
<path d="M1777 1013 c-4 -3 -7 -19 -7 -34 0 -20 9 -32 36 -48 41 -24 72 -86
81 -160 l6 -49 -89 -7 c-67 -5 -99 -3 -131 8 l-43 15 0 -38 c0 -27 5 -40 18
-45 41 -18 103 -23 186 -18 l89 6 -7 86 c-8 113 -29 186 -63 229 -33 41 -67
65 -76 55z"/>
<path d="M2117 1013 c-4 -3 -7 -18 -7 -33 0 -20 10 -33 37 -51 45 -30 73 -81
80 -152 l6 -54 -67 -8 c-72 -7 -162 1 -172 16 -13 21 -25 6 -22 -28 5 -54 46
-66 223 -67 133 -1 143 0 199 27 l59 27 46 -22 c25 -12 72 -24 105 -26 l59 -5
-7 59 c-6 57 -38 139 -68 178 -22 28 -48 14 -130 -69 -55 -55 -84 -76 -116
-85 -70 -18 -75 -15 -88 73 -15 95 -57 182 -100 208 -17 10 -34 16 -37 12z
m468 -217 c7 -11 15 -34 17 -51 3 -27 0 -30 -22 -27 -35 5 -90 44 -90 64 0 23
37 47 61 41 11 -3 26 -15 34 -27z"/>
<path d="M1390 825 c-7 -8 -10 -25 -6 -40 8 -31 50 -35 66 -5 23 42 -30 81
-60 45z"/>
<path d="M645 627 c-26 -20 -13 -67 18 -67 43 0 60 35 31 64 -19 19 -25 20
-49 3z"/>
<path d="M915 595 c-47 -22 -95 -72 -95 -99 0 -5 10 6 23 25 29 43 100 74 150
65 54 -10 97 -58 97 -108 0 -32 -7 -47 -35 -75 -19 -19 -35 -37 -35 -39 0 -2
13 -4 29 -4 35 0 79 33 83 63 3 20 6 17 31 -20 35 -50 89 -89 138 -98 42 -8
112 18 142 53 l19 20 -51 -15 c-72 -21 -108 -7 -173 69 -75 87 -138 145 -175
163 -39 19 -108 19 -148 0z"/>
<path d="M1670 506 c-7 -47 -11 -89 -8 -92 3 -2 9 20 13 51 3 30 10 55 14 55
4 0 18 -22 30 -50 24 -54 36 -62 44 -30 3 11 1 17 -4 14 -5 -3 -25 27 -43 67
l-33 72 -13 -87z"/>
<path d="M2138 583 c7 -3 16 -2 19 1 4 3 -2 6 -13 5 -11 0 -14 -3 -6 -6z"/>
<path d="M2347 568 c-4 -12 -3 -25 2 -28 5 -3 12 -16 16 -30 14 -48 40 -99 51
-100 9 0 -47 164 -61 178 -1 1 -5 -7 -8 -20z"/>
<path d="M2559 576 c18 -6 39 -20 47 -31 17 -23 18 -78 3 -108 -12 -22 -12
-22 9 -3 51 45 29 127 -38 146 -48 14 -62 11 -21 -4z"/>
<path d="M1802 543 c-25 -47 -29 -66 -9 -38 17 22 22 14 31 -47 4 -27 11 -48
16 -48 9 0 6 45 -9 135 l-7 40 -22 -42z"/>
<path d="M1937 520 c-15 -34 -27 -67 -26 -73 0 -7 4 -2 9 10 5 13 16 20 27 19
10 -2 12 -1 5 1 -9 3 -12 13 -8 26 3 12 6 25 6 30 0 19 20 4 26 -20 10 -51 37
-103 52 -103 10 0 12 4 5 13 -6 6 -18 35 -27 62 -9 28 -23 61 -30 73 -12 23
-13 22 -39 -38z"/>
<path d="M2090 495 c0 -74 2 -85 18 -85 15 0 17 9 14 85 -3 65 -7 85 -18 85
-11 0 -14 -18 -14 -85z"/>
<path d="M2185 568 c11 -6 26 -18 33 -26 15 -20 16 -76 1 -105 -12 -22 -12
-22 9 -4 52 47 23 146 -43 146 l-20 0 20 -11z"/>
<path d="M2480 495 c0 -74 2 -85 18 -85 15 0 17 9 14 85 -3 65 -7 85 -18 85
-11 0 -14 -18 -14 -85z"/>
<path d="M2303 461 c-12 -28 -18 -51 -14 -51 10 0 43 78 39 91 -2 6 -13 -12
-25 -40z"/>
<path d="M1895 420 c-3 -5 -1 -10 4 -10 6 0 11 5 11 10 0 6 -2 10 -4 10 -3 0
-8 -4 -11 -10z"/>
<path d="M1116 351 c-21 -23 -14 -57 13 -66 45 -14 76 32 45 66 -9 10 -22 19
-29 19 -7 0 -20 -9 -29 -19z"/>
</g>
</svg>
