<?xml version="1.0" standalone="no"?>
<!DOCTYPE svg PUBLIC "-//W3C//DTD SVG 20010904//EN"
 "http://www.w3.org/TR/2001/REC-SVG-20010904/DTD/svg10.dtd">
<svg version="1.0" xmlns="http://www.w3.org/2000/svg"
 width="817.000000pt" height="441.000000pt" viewBox="0 0 817.000000 441.000000"
 preserveAspectRatio="xMidYMid meet">

<g transform="translate(0.000000,441.000000) scale(0.100000,-0.100000)"
fill="#000000" stroke="none">
<path d="M2340 3804 c-42 -18 -86 -59 -106 -96 -8 -15 -14 -55 -14 -89 0 -61
1 -64 45 -105 51 -49 95 -62 161 -47 24 6 44 9 44 7 0 -2 -9 -14 -19 -26 -138
-165 -194 -226 -333 -363 -90 -88 -192 -187 -227 -220 l-64 -60 -93 0 c-91 0
-93 -1 -126 -32 -39 -38 -53 -41 -68 -13 -6 11 -27 31 -48 45 -43 29 -118 34
-175 10 l-35 -14 -123 132 c-188 201 -202 216 -276 307 -66 83 -163 216 -163
226 0 3 9 0 19 -6 29 -15 128 -12 160 5 100 51 120 194 38 275 -39 39 -85 60
-132 60 -27 0 -45 -9 -79 -40 -67 -62 -86 -162 -46 -240 l20 -40 -35 -92 c-32
-81 -94 -229 -145 -343 -235 -523 -294 -727 -295 -1010 0 -229 34 -365 152
-602 l65 -132 147 -125 c154 -132 231 -192 231 -181 0 4 -33 71 -74 149 -145
276 -212 517 -223 803 -8 213 17 376 111 713 43 153 141 433 153 437 6 2 42
-33 81 -79 38 -46 124 -137 190 -204 l122 -120 -10 -34 c-13 -45 -13 -131 0
-165 5 -14 31 -48 56 -75 45 -48 46 -51 34 -80 -11 -28 -10 -33 9 -54 19 -20
20 -27 10 -48 -8 -19 -8 -31 1 -48 10 -19 18 -21 49 -16 30 4 39 2 50 -15 11
-18 19 -21 56 -16 31 5 46 2 55 -8 17 -21 67 -19 79 3 8 14 13 15 30 5 25 -15
77 -17 86 -3 3 6 26 10 50 10 36 0 48 5 61 25 9 14 13 32 9 45 -4 14 -1 28 10
41 14 14 16 29 11 65 -6 45 -4 49 38 94 61 66 78 109 74 192 l-3 68 167 152
c91 84 187 177 213 206 26 28 50 52 55 52 8 0 39 -94 58 -175 6 -22 24 -96 41
-164 127 -494 134 -839 26 -1173 -47 -146 -152 -358 -237 -481 -53 -76 -78
-115 -78 -121 0 -12 329 215 427 294 17 14 42 43 55 65 14 22 46 72 71 112 98
152 165 362 174 544 12 237 -42 474 -202 884 -150 387 -215 569 -215 606 0 10
11 35 25 55 51 75 23 210 -54 261 -39 27 -72 28 -121 7z m-1451 -55 c51 -29
73 -64 79 -122 6 -66 -17 -110 -73 -137 -73 -35 -136 -22 -189 40 -20 25 -26
42 -26 81 0 125 107 196 209 138z m-115 -408 c86 -115 178 -224 347 -408 l135
-148 -32 -27 c-17 -16 -36 -28 -41 -28 -14 0 -240 237 -308 323 -49 62 -65 76
-85 74 -23 -2 -30 -19 -107 -247 -89 -267 -143 -474 -169 -645 -25 -165 -16
-431 20 -583 38 -161 95 -314 176 -470 39 -74 69 -137 66 -139 -5 -6 -277 228
-309 266 -39 46 -120 219 -156 334 -50 156 -64 260 -58 427 10 271 60 440 292
985 91 213 112 265 146 353 5 12 10 22 13 22 2 0 34 -40 70 -89z m686 -548
c34 -22 80 -65 80 -74 0 -4 -45 -46 -100 -94 -80 -70 -100 -92 -100 -114 0
-65 53 -68 126 -6 28 25 56 45 62 45 5 0 17 -9 27 -20 10 -11 32 -22 50 -26
42 -8 209 -172 203 -200 -8 -43 -40 -27 -133 66 -58 58 -97 90 -105 85 -8 -5
26 -46 99 -120 116 -117 137 -155 86 -155 -26 0 -81 49 -187 167 -55 60 -68
70 -68 50 0 -9 41 -60 90 -115 50 -56 90 -105 90 -110 0 -5 -10 -12 -22 -15
-26 -7 -72 31 -154 128 -41 48 -60 64 -62 53 -2 -9 24 -51 58 -92 61 -73 68
-96 30 -96 -17 0 -167 155 -294 303 -55 65 -67 113 -47 194 19 73 69 118 166
149 55 17 76 17 105 -3z"/>
<path d="M7619 2617 c-46 -24 -116 -65 -155 -91 l-72 -48 -27 -106 c-14 -59
-33 -130 -41 -159 l-15 -52 -36 25 c-49 33 -69 37 -165 32 -122 -6 -204 -42
-322 -141 -99 -84 -203 -245 -227 -353 -10 -45 -20 -59 -72 -105 -135 -120
-192 -144 -237 -99 -43 43 -25 142 89 484 39 116 68 212 65 215 -15 16 -63 1
-172 -53 -119 -59 -124 -60 -134 -41 -22 39 -70 75 -123 91 -73 23 -160 9
-273 -46 -162 -77 -278 -189 -351 -336 -41 -84 -53 -137 -53 -236 0 -71 5 -97
25 -140 61 -134 162 -187 290 -153 84 22 150 69 253 179 l91 97 5 -75 c12
-188 124 -257 290 -179 34 17 113 71 174 121 l112 90 22 -60 c30 -82 98 -151
169 -172 99 -29 227 17 346 126 41 38 65 55 62 43 -7 -24 -47 -195 -47 -201 0
-2 68 -4 150 -4 83 0 150 2 150 3 0 2 22 105 50 228 27 123 50 232 50 241 0
19 -10 21 -168 38 -56 6 -106 9 -111 6 -5 -3 -11 -20 -15 -37 -8 -40 -56 -123
-98 -171 -94 -104 -214 -105 -248 -2 -42 127 99 465 226 540 93 55 172 17 188
-92 3 -18 13 -19 149 -22 l146 -3 7 28 c12 55 116 450 140 532 13 46 24 87 24
92 0 17 -27 9 -111 -34z m-1650 -491 c76 -40 68 -200 -20 -385 -76 -160 -158
-241 -244 -241 -142 0 -153 183 -25 429 88 168 198 244 289 197z"/>
<path d="M5390 2596 c-41 -18 -111 -51 -155 -74 l-80 -41 -44 -173 c-24 -95
-46 -175 -47 -177 -2 -2 -23 9 -46 25 -40 27 -50 29 -133 29 -111 0 -169 -19
-270 -86 -149 -100 -275 -275 -309 -431 -7 -30 -145 -157 -206 -188 -104 -53
-145 29 -101 201 15 59 137 441 158 497 4 8 -6 12 -31 12 -23 0 -74 -20 -152
-60 l-117 -60 -17 27 c-77 125 -264 124 -465 -2 -140 -87 -252 -221 -306 -365
-20 -53 -24 -83 -23 -165 0 -89 3 -106 27 -153 37 -71 96 -126 152 -142 128
-36 275 37 415 204 30 36 58 66 63 66 4 0 7 -24 7 -53 0 -123 53 -210 136
-223 97 -14 177 23 337 156 59 50 110 90 112 90 3 0 5 -10 5 -23 0 -72 105
-197 184 -218 103 -28 238 26 358 141 37 36 68 61 68 55 0 -5 -9 -47 -20 -93
-11 -46 -20 -87 -20 -93 0 -5 63 -9 148 -9 l149 0 53 241 c28 132 50 242 47
245 -4 4 -241 34 -274 34 -7 0 -13 -6 -13 -13 0 -24 -67 -152 -108 -206 -67
-89 -141 -124 -205 -97 -52 21 -67 50 -67 126 0 83 20 162 69 264 74 157 162
246 243 246 37 0 86 -44 99 -91 l12 -39 147 0 147 0 46 183 c44 169 57 218
107 400 13 48 15 67 7 67 -7 0 -46 -15 -87 -34z m-1669 -506 c76 -41 61 -217
-35 -408 -69 -137 -160 -222 -237 -222 -40 0 -86 35 -99 76 -46 137 93 459
235 546 33 20 105 24 136 8z"/>
</g>
</svg>
